<svg xmlns="http://www.w3.org/2000/svg" width="128.9038mm" height="128.9038mm" version="1.1" viewBox="0 0 5090.38 5090.38">
 <defs>
  <style type="text/css">
   <![CDATA[
    .str1 {stroke:#2B2A29;stroke-width:7.62;stroke-miterlimit:22.9256}
    .str0 {stroke:#2B2A29;stroke-width:7.62;stroke-miterlimit:22.9256}
    .fil0 {fill:#F09614}
    .fil1 {fill:#FEFEFE}
    .fil2 {fill:#2B2A29}
    .fil3 {fill:#2B2A29;fill-rule:nonzero}
    .fil4 {fill:none;fill-rule:nonzero}
   ]]>
  </style>
 </defs>
 <g>
  <circle class="fil0" cx="2566.93" cy="2545.19" r="2349.26"/>
  <path class="fil1" d="M4645.21 1494.62c158.36,316.15 247.6,672.91 247.6,1050.57 0,275.95 -47.73,540.73 -135.12,786.69l-4428.27 0c-87.39,-245.96 -135.13,-510.74 -135.13,-786.69 0,-377.66 89.25,-734.42 247.6,-1050.57l4203.32 0z"/>
  <polygon class="fil2 str0" points="549.06,1189.26 4531.49,1189.26 4531.49,1494.62 549.06,1494.62 "/>
  <polygon class="fil2" points="417.2,3267.64 4733.4,3267.64 4733.4,3572.99 417.2,3572.99 "/>
  <path class="fil3" d="M2545.19 0c702.82,0 1339.12,284.89 1799.71,745.48 460.59,460.59 745.48,1096.89 745.48,1799.71 0,702.82 -284.89,1339.12 -745.48,1799.71 -460.59,460.59 -1096.89,745.48 -1799.71,745.48 -702.82,0 -1339.12,-284.89 -1799.71,-745.48 -460.59,-460.59 -745.48,-1096.89 -745.48,-1799.71 0,-702.82 284.89,-1339.12 745.48,-1799.71 460.59,-460.59 1096.89,-745.48 1799.71,-745.48zm1580.53 964.66c-404.47,-404.47 -963.28,-654.66 -1580.53,-654.66 -617.25,0 -1176.06,250.19 -1580.53,654.66 -404.47,404.47 -654.66,963.28 -654.66,1580.53 0,617.25 250.19,1176.06 654.66,1580.53 404.47,404.47 963.28,654.66 1580.53,654.66 617.25,0 1176.06,-250.19 1580.53,-654.66 404.47,-404.47 654.66,-963.28 654.66,-1580.53 0,-617.25 -250.19,-1176.06 -654.66,-1580.53z"/>
  <path class="fil3" d="M642.89 2742.97c-50.68,0 -93.26,-10.79 -127.75,-32.36 -34.48,-21.57 -60.34,-53.54 -77.59,-95.88 -17.23,-42.35 -25.85,-94.42 -25.85,-156.21 0,-63.93 9.14,-118.39 27.42,-163.41 18.29,-45.01 45.33,-79.37 81.12,-103.07 35.79,-23.71 79.8,-35.56 132.05,-35.56 26.65,0 50.68,2.93 72.1,8.79 21.42,5.86 41.79,14.12 61.13,24.77l-25.08 59.93c-13.06,-8.52 -28.48,-15.45 -46.24,-20.78 -17.76,-5.32 -37.88,-7.99 -60.34,-7.99 -37.62,0 -69.1,9.19 -94.44,27.57 -25.34,18.38 -44.28,44.88 -56.82,79.5 -12.53,34.63 -18.8,76.98 -18.8,127.05 0,42.61 5.09,80.83 15.28,114.66 10.19,33.83 27.17,60.46 50.94,79.9 23.77,19.45 55.77,29.17 96,29.17 16.72,0 31.35,-1.33 43.89,-4 12.54,-2.66 23.77,-5.32 33.7,-7.99l0 -169.39 -101.88 0 0 -63.92 170.06 0 0 279.66c-19.33,7.99 -41.67,14.91 -67.01,20.77 -25.34,5.86 -52.64,8.79 -81.89,8.79z"/>
  <polygon id="1" class="fil3" points="896.76,2734.98 896.76,2164.47 967.29,2164.47 967.29,2668.66 1210.24,2668.66 1210.24,2734.98 "/>
  <polygon id="2" class="fil3" points="1311.29,2734.98 1311.29,2164.47 1640.44,2164.47 1640.44,2228.39 1381.82,2228.39 1381.82,2429.75 1625.55,2429.75 1625.55,2493.67 1381.82,2493.67 1381.82,2734.98 "/>
  <path id="3" class="fil3" d="M1749.33 2734.98l-62.69 -570.51 65.04 0c2.09,20.78 4.04,41.69 5.88,62.73 1.82,21.04 3.78,42.08 5.87,63.12 2.09,21.04 4.05,42.08 5.88,63.12 1.83,21.04 3.79,41.95 5.88,62.73 1.56,16.51 3.13,34.09 4.7,52.73 1.57,18.65 3,37.42 4.31,56.33 1.31,18.92 2.49,36.89 3.53,53.94 1.05,17.05 1.96,32.36 2.74,45.94 0.79,13.59 1.18,24.11 1.18,31.57l1.56 0c1.57,-9.06 3.66,-20.38 6.28,-33.96 2.61,-13.59 5.48,-28.1 8.62,-43.55 3.13,-15.45 6.39,-30.76 9.79,-45.95 3.4,-15.18 6.4,-28.89 9.01,-41.15l42.32 -185.37 67.41 0 43.88 186.97c3.14,13.85 6.53,28.37 10.19,43.55 3.66,15.18 7.05,30.1 10.19,44.75 3.13,14.64 5.87,28.49 8.23,41.55 2.34,13.05 4.3,24.1 5.87,33.16l1.57 0c0.52,-7.46 1.04,-17.45 1.57,-29.97 0.52,-12.52 1.17,-26.63 1.95,-42.35 0.79,-15.71 1.7,-32.89 2.75,-51.53 1.04,-18.65 2.35,-37.96 3.91,-57.93 1.57,-19.98 3.14,-40.36 4.71,-61.13 1.57,-16.51 3,-33.16 4.31,-49.94 1.31,-16.78 2.74,-33.43 4.31,-49.94 1.57,-16.51 3,-33.03 4.31,-49.54 1.3,-16.51 2.62,-33.16 3.92,-49.94 1.3,-16.78 2.74,-33.42 4.31,-49.94l65.04 0 -56.42 570.51 -76.02 0 -61.91 -262.08c-3.66,-15.98 -6.79,-30.5 -9.41,-43.55 -2.61,-13.05 -4.7,-24.24 -6.27,-33.56 -1.57,-9.32 -2.87,-16.11 -3.91,-20.37l-1.57 0c-0.52,4.26 -1.44,10.92 -2.75,19.97 -1.3,9.06 -3.26,20.11 -5.87,33.16 -2.61,13.05 -5.75,27.83 -9.41,44.35l-59.55 262.08 -75.24 0z"/>
  <polygon id="4" class="fil3" points="2214.79,2551.2 2214.79,2487.28 2449.9,2487.28 2449.9,2551.2 "/>
  <path id="5" class="fil3" d="M2813.5 2742.97c-54.87,0 -99.53,-12.52 -134.02,-37.55 -34.48,-25.04 -59.82,-59.53 -76.01,-103.48 -16.2,-43.95 -24.3,-94.68 -24.3,-152.21 0,-45.28 5.22,-85.9 15.68,-121.86 10.44,-35.95 25.85,-66.71 46.23,-92.28 20.38,-25.57 45.2,-45.15 74.46,-58.73 29.25,-13.59 62.96,-20.38 101.09,-20.38 27.17,0 52.64,2.93 76.41,8.79 23.77,5.86 45.58,14.12 65.44,24.77l-26.64 58.33c-16.2,-9.05 -34.62,-15.98 -55.25,-20.77 -20.64,-4.8 -40.63,-7.2 -59.96,-7.2 -26.64,0 -50.29,5.07 -70.92,15.19 -20.64,10.12 -37.88,24.9 -51.73,44.34 -13.84,19.45 -24.42,43.42 -31.74,71.92 -7.31,28.49 -10.97,61.12 -10.97,97.88 0,46.87 5.61,87.36 16.85,121.45 11.23,34.09 28.87,60.19 52.9,78.3 24.03,18.12 55.39,27.17 94.04,27.17 17.77,0 36.97,-2 57.6,-5.99 20.64,-4 41.15,-10.26 61.53,-18.78l0 67.92c-20.9,7.99 -40.89,13.85 -59.96,17.58 -19.06,3.73 -39.31,5.59 -60.73,5.59z"/>
  <path id="6" class="fil3" d="M3150.44 2742.97c-41.27,0 -74.58,-10.39 -99.92,-31.16 -25.34,-20.78 -38.01,-52.21 -38.01,-94.29 0,-30.89 7.31,-56.6 21.94,-77.1 14.63,-20.51 36.18,-35.96 64.65,-46.35 28.49,-10.38 63.1,-16.11 103.85,-17.18l90.12 -2.39 0 -17.58c0,-38.36 -9.4,-64.59 -28.21,-78.71 -18.81,-14.11 -44.15,-21.17 -76.02,-21.17 -22.46,0 -43.88,2.93 -64.27,8.79 -20.37,5.86 -39.7,14.11 -57.98,24.77l-24.3 -54.34c19.86,-10.12 41.92,-18.91 66.22,-26.36 24.29,-7.46 52.38,-11.19 84.25,-11.19 52.77,0 93.39,12.12 121.87,36.36 28.47,24.23 42.71,61.92 42.71,113.06l0 286.85 -56.43 0 -7.84 -59.13 -3.13 0c-11.5,14.92 -24.17,27.3 -38.01,37.16 -13.85,9.85 -29.13,17.31 -45.85,22.37 -16.71,5.06 -35.26,7.59 -55.64,7.59zm11.76 -58.33c23.51,0 45.18,-4.39 65.05,-13.18 19.85,-8.79 35.79,-22.11 47.8,-39.95 12.02,-17.85 18.02,-40.36 18.02,-67.52l0 -38.36 -75.23 2.4c-33.44,1.07 -60.35,5.19 -80.72,12.39 -20.38,7.19 -35.14,17.04 -44.28,29.56 -9.15,12.52 -13.72,27.57 -13.72,45.15 0,24.5 7.58,42.21 22.73,53.13 15.15,10.92 35.27,16.38 60.35,16.38z"/>
  <path id="7" class="fil3" d="M3450.55 2734.98l0 -47.94 149.69 -11.99 0 -308.42 -137.15 -10.39 0 -49.54 207.68 0 0 368.35 140.28 11.99 0 47.94 -360.5 0zm177.9 -505.79c-13.59,0 -25.21,-4.26 -34.87,-12.78 -9.67,-8.52 -14.51,-21.04 -14.51,-37.55 0,-17.58 4.84,-30.5 14.51,-38.76 9.66,-8.25 21.28,-12.38 34.87,-12.38 13.58,0 25.2,4.13 34.87,12.38 9.67,8.26 14.5,21.18 14.5,38.76 0,16.51 -4.83,29.03 -14.5,37.55 -9.67,8.52 -21.29,12.78 -34.87,12.78z"/>
  <path id="8" class="fil3" d="M3866.65 2734.98l0 -47.94 127.74 -11.99 0 -308.42 -115.21 -10.39 0 -49.54 171.63 0 9.41 78.3 3.14 0c14.62,-28.23 30.69,-49.67 48.2,-64.32 17.49,-14.65 40.61,-21.97 69.35,-21.97 17.76,0 33.57,1.6 47.41,4.79 13.85,3.2 26.52,7.46 38.02,12.79l-18.81 63.12c-8.36,-4.79 -18.3,-8.92 -29.78,-12.38 -11.5,-3.47 -23.78,-5.2 -36.84,-5.2 -22.46,0 -42.32,7.19 -59.57,21.58 -17.23,14.38 -30.81,33.56 -40.74,57.53 -9.93,23.97 -14.9,50.34 -14.9,79.1l0 155.01 122.26 11.99 0 47.94 -321.31 0z"/>
  <path id="9" class="fil3" d="M4484.16 2742.97c-27.17,0 -52.52,-4.53 -76.03,-13.58 -23.51,-9.06 -44.02,-22.91 -61.51,-41.55 -17.51,-18.65 -31.09,-41.95 -40.76,-69.92 -9.67,-27.96 -14.49,-60.86 -14.49,-98.68 0,-49.54 8.23,-90.55 24.68,-123.05 16.46,-32.49 39.05,-56.86 67.79,-73.11 28.74,-16.25 61.39,-24.37 97.96,-24.37 36.58,0 69.49,8.12 98.75,24.37 29.26,16.25 52.38,40.75 69.35,73.51 16.99,32.76 25.48,74.44 25.48,125.05 0,37.29 -4.84,69.78 -14.5,97.48 -9.67,27.7 -22.99,50.74 -39.97,69.12 -16.98,18.37 -37.09,32.09 -60.35,41.15 -23.24,9.05 -48.72,13.58 -76.4,13.58zm-0.79 -58.33c27.17,0 49.63,-6.66 67.4,-19.97 17.77,-13.32 31.08,-32.37 39.97,-57.14 8.88,-24.77 13.32,-53.93 13.32,-87.49 0,-34.09 -4.44,-63.26 -13.32,-87.49 -8.89,-24.24 -22.34,-42.88 -40.36,-55.93 -18.03,-13.06 -40.62,-19.58 -67.79,-19.58 -40.76,0 -71.19,14.51 -91.31,43.55 -20.11,29.03 -30.17,68.85 -30.17,119.45 0,33.56 4.57,62.72 13.72,87.49 9.15,24.77 22.73,43.82 40.75,57.14 18.03,13.31 40.62,19.97 67.79,19.97z"/>
  <path id="10" class="fil4 str1" d="M642.89 2742.97c-50.68,0 -93.26,-10.79 -127.75,-32.36 -34.48,-21.57 -60.34,-53.54 -77.59,-95.88 -17.23,-42.35 -25.85,-94.42 -25.85,-156.21 0,-63.93 9.14,-118.39 27.42,-163.41 18.29,-45.01 45.33,-79.37 81.12,-103.07 35.79,-23.71 79.8,-35.56 132.05,-35.56 26.65,0 50.68,2.93 72.1,8.79 21.42,5.86 41.79,14.12 61.13,24.77l-25.08 59.93c-13.06,-8.52 -28.48,-15.45 -46.24,-20.78 -17.76,-5.32 -37.88,-7.99 -60.34,-7.99 -37.62,0 -69.1,9.19 -94.44,27.57 -25.34,18.38 -44.28,44.88 -56.82,79.5 -12.53,34.63 -18.8,76.98 -18.8,127.05 0,42.61 5.09,80.83 15.28,114.66 10.19,33.83 27.17,60.46 50.94,79.9 23.77,19.45 55.77,29.17 96,29.17 16.72,0 31.35,-1.33 43.89,-4 12.54,-2.66 23.77,-5.32 33.7,-7.99l0 -169.39 -101.88 0 0 -63.92 170.06 0 0 279.66c-19.33,7.99 -41.67,14.91 -67.01,20.77 -25.34,5.86 -52.64,8.79 -81.89,8.79z"/>
  <polygon id="11" class="fil4 str1" points="896.76,2734.98 896.76,2164.47 967.29,2164.47 967.29,2668.66 1210.24,2668.66 1210.24,2734.98 "/>
  <polygon id="12" class="fil4 str1" points="1311.29,2734.98 1311.29,2164.47 1640.44,2164.47 1640.44,2228.39 1381.82,2228.39 1381.82,2429.75 1625.55,2429.75 1625.55,2493.67 1381.82,2493.67 1381.82,2734.98 "/>
  <path id="13" class="fil4 str1" d="M1749.33 2734.98l-62.69 -570.51 65.04 0c2.09,20.78 4.04,41.69 5.88,62.73 1.82,21.04 3.78,42.08 5.87,63.12 2.09,21.04 4.05,42.08 5.88,63.12 1.83,21.04 3.79,41.95 5.88,62.73 1.56,16.51 3.13,34.09 4.7,52.73 1.57,18.65 3,37.42 4.31,56.33 1.31,18.92 2.49,36.89 3.53,53.94 1.05,17.05 1.96,32.36 2.74,45.94 0.79,13.59 1.18,24.11 1.18,31.57l1.56 0c1.57,-9.06 3.66,-20.38 6.28,-33.96 2.61,-13.59 5.48,-28.1 8.62,-43.55 3.13,-15.45 6.39,-30.76 9.79,-45.95 3.4,-15.18 6.4,-28.89 9.01,-41.15l42.32 -185.37 67.41 0 43.88 186.97c3.14,13.85 6.53,28.37 10.19,43.55 3.66,15.18 7.05,30.1 10.19,44.75 3.13,14.64 5.87,28.49 8.23,41.55 2.34,13.05 4.3,24.1 5.87,33.16l1.57 0c0.52,-7.46 1.04,-17.45 1.57,-29.97 0.52,-12.52 1.17,-26.63 1.95,-42.35 0.79,-15.71 1.7,-32.89 2.75,-51.53 1.04,-18.65 2.35,-37.96 3.91,-57.93 1.57,-19.98 3.14,-40.36 4.71,-61.13 1.57,-16.51 3,-33.16 4.31,-49.94 1.31,-16.78 2.74,-33.43 4.31,-49.94 1.57,-16.51 3,-33.03 4.31,-49.54 1.3,-16.51 2.62,-33.16 3.92,-49.94 1.3,-16.78 2.74,-33.42 4.31,-49.94l65.04 0 -56.42 570.51 -76.02 0 -61.91 -262.08c-3.66,-15.98 -6.79,-30.5 -9.41,-43.55 -2.61,-13.05 -4.7,-24.24 -6.27,-33.56 -1.57,-9.32 -2.87,-16.11 -3.91,-20.37l-1.57 0c-0.52,4.26 -1.44,10.92 -2.75,19.97 -1.3,9.06 -3.26,20.11 -5.87,33.16 -2.61,13.05 -5.75,27.83 -9.41,44.35l-59.55 262.08 -75.24 0z"/>
  <polygon id="14" class="fil4 str1" points="2214.79,2551.2 2214.79,2487.28 2449.9,2487.28 2449.9,2551.2 "/>
  <path id="15" class="fil4 str1" d="M2813.5 2742.97c-54.87,0 -99.53,-12.52 -134.02,-37.55 -34.48,-25.04 -59.82,-59.53 -76.01,-103.48 -16.2,-43.95 -24.3,-94.68 -24.3,-152.21 0,-45.28 5.22,-85.9 15.68,-121.86 10.44,-35.95 25.85,-66.71 46.23,-92.28 20.38,-25.57 45.2,-45.15 74.46,-58.73 29.25,-13.59 62.96,-20.38 101.09,-20.38 27.17,0 52.64,2.93 76.41,8.79 23.77,5.86 45.58,14.12 65.44,24.77l-26.64 58.33c-16.2,-9.05 -34.62,-15.98 -55.25,-20.77 -20.64,-4.8 -40.63,-7.2 -59.96,-7.2 -26.64,0 -50.29,5.07 -70.92,15.19 -20.64,10.12 -37.88,24.9 -51.73,44.34 -13.84,19.45 -24.42,43.42 -31.74,71.92 -7.31,28.49 -10.97,61.12 -10.97,97.88 0,46.87 5.61,87.36 16.85,121.45 11.23,34.09 28.87,60.19 52.9,78.3 24.03,18.12 55.39,27.17 94.04,27.17 17.77,0 36.97,-2 57.6,-5.99 20.64,-4 41.15,-10.26 61.53,-18.78l0 67.92c-20.9,7.99 -40.89,13.85 -59.96,17.58 -19.06,3.73 -39.31,5.59 -60.73,5.59z"/>
  <path id="16" class="fil4 str1" d="M3150.44 2742.97c-41.27,0 -74.58,-10.39 -99.92,-31.16 -25.34,-20.78 -38.01,-52.21 -38.01,-94.29 0,-30.89 7.31,-56.6 21.94,-77.1 14.63,-20.51 36.18,-35.96 64.65,-46.35 28.49,-10.38 63.1,-16.11 103.85,-17.18l90.12 -2.39 0 -17.58c0,-38.36 -9.4,-64.59 -28.21,-78.71 -18.81,-14.11 -44.15,-21.17 -76.02,-21.17 -22.46,0 -43.88,2.93 -64.27,8.79 -20.37,5.86 -39.7,14.11 -57.98,24.77l-24.3 -54.34c19.86,-10.12 41.92,-18.91 66.22,-26.36 24.29,-7.46 52.38,-11.19 84.25,-11.19 52.77,0 93.39,12.12 121.87,36.36 28.47,24.23 42.71,61.92 42.71,113.06l0 286.85 -56.43 0 -7.84 -59.13 -3.13 0c-11.5,14.92 -24.17,27.3 -38.01,37.16 -13.85,9.85 -29.13,17.31 -45.85,22.37 -16.71,5.06 -35.26,7.59 -55.64,7.59zm11.76 -58.33c23.51,0 45.18,-4.39 65.05,-13.18 19.85,-8.79 35.79,-22.11 47.8,-39.95 12.02,-17.85 18.02,-40.36 18.02,-67.52l0 -38.36 -75.23 2.4c-33.44,1.07 -60.35,5.19 -80.72,12.39 -20.38,7.19 -35.14,17.04 -44.28,29.56 -9.15,12.52 -13.72,27.57 -13.72,45.15 0,24.5 7.58,42.21 22.73,53.13 15.15,10.92 35.27,16.38 60.35,16.38z"/>
  <path id="17" class="fil4 str1" d="M3450.55 2734.98l0 -47.94 149.69 -11.99 0 -308.42 -137.15 -10.39 0 -49.54 207.68 0 0 368.35 140.28 11.99 0 47.94 -360.5 0zm177.9 -505.79c-13.59,0 -25.21,-4.26 -34.87,-12.78 -9.67,-8.52 -14.51,-21.04 -14.51,-37.55 0,-17.58 4.84,-30.5 14.51,-38.76 9.66,-8.25 21.28,-12.38 34.87,-12.38 13.58,0 25.2,4.13 34.87,12.38 9.67,8.26 14.5,21.18 14.5,38.76 0,16.51 -4.83,29.03 -14.5,37.55 -9.67,8.52 -21.29,12.78 -34.87,12.78z"/>
  <path id="18" class="fil4 str1" d="M3866.65 2734.98l0 -47.94 127.74 -11.99 0 -308.42 -115.21 -10.39 0 -49.54 171.63 0 9.41 78.3 3.14 0c14.62,-28.23 30.69,-49.67 48.2,-64.32 17.49,-14.65 40.61,-21.97 69.35,-21.97 17.76,0 33.57,1.6 47.41,4.79 13.85,3.2 26.52,7.46 38.02,12.79l-18.81 63.12c-8.36,-4.79 -18.3,-8.92 -29.78,-12.38 -11.5,-3.47 -23.78,-5.2 -36.84,-5.2 -22.46,0 -42.32,7.19 -59.57,21.58 -17.23,14.38 -30.81,33.56 -40.74,57.53 -9.93,23.97 -14.9,50.34 -14.9,79.1l0 155.01 122.26 11.99 0 47.94 -321.31 0z"/>
  <path id="19" class="fil4 str1" d="M4484.16 2742.97c-27.17,0 -52.52,-4.53 -76.03,-13.58 -23.51,-9.06 -44.02,-22.91 -61.51,-41.55 -17.51,-18.65 -31.09,-41.95 -40.76,-69.92 -9.67,-27.96 -14.49,-60.86 -14.49,-98.68 0,-49.54 8.23,-90.55 24.68,-123.05 16.46,-32.49 39.05,-56.86 67.79,-73.11 28.74,-16.25 61.39,-24.37 97.96,-24.37 36.58,0 69.49,8.12 98.75,24.37 29.26,16.25 52.38,40.75 69.35,73.51 16.99,32.76 25.48,74.44 25.48,125.05 0,37.29 -4.84,69.78 -14.5,97.48 -9.67,27.7 -22.99,50.74 -39.97,69.12 -16.98,18.37 -37.09,32.09 -60.35,41.15 -23.24,9.05 -48.72,13.58 -76.4,13.58zm-0.79 -58.33c27.17,0 49.63,-6.66 67.4,-19.97 17.77,-13.32 31.08,-32.37 39.97,-57.14 8.88,-24.77 13.32,-53.93 13.32,-87.49 0,-34.09 -4.44,-63.26 -13.32,-87.49 -8.89,-24.24 -22.34,-42.88 -40.36,-55.93 -18.03,-13.06 -40.62,-19.58 -67.79,-19.58 -40.76,0 -71.19,14.51 -91.31,43.55 -20.11,29.03 -30.17,68.85 -30.17,119.45 0,33.56 4.57,62.72 13.72,87.49 9.15,24.77 22.73,43.82 40.75,57.14 18.03,13.31 40.62,19.97 67.79,19.97z"/>
 </g>
</svg>
